<svg width="240" height="240" viewBox="0 0 240 240" fill="none" xmlns="http://www.w3.org/2000/svg">
<g clip-path="url(#clip0_42_2)">
<path d="M155.15 97.6238C167.525 109.355 175.4 125.824 175.4 144.097C175.4 179.291 146.825 207.942 111.725 207.942C76.625 207.942 48.05 179.291 48.05 144.097C48.05 115.672 66.725 91.5326 92.375 83.411C90.8 77.5454 91.7 71.4542 94.625 66.2654C59.075 74.1614 32.3 105.971 32.3 144.097C32.3 188.089 67.85 223.734 111.725 223.734C155.6 223.734 191.15 187.864 191.15 144.097C191.15 121.086 181.25 100.105 165.5 85.667C163.475 90.8558 159.875 95.1422 155.15 97.6238Z" fill="black"/>
<path d="M130.4 134.171C130.4 134.171 132.875 130.336 136.25 130.336C139.85 130.336 142.1 134.171 142.1 134.171C144.125 137.781 148.625 138.909 152.225 136.878C155.825 134.848 156.95 130.336 154.925 126.726C152.45 122.44 145.925 115.446 136.25 115.446C126.575 115.446 119.825 122.665 117.575 126.726C115.55 130.336 116.9 134.848 120.275 136.878C123.875 138.909 128.375 137.781 130.4 134.171Z" fill="black"/>
<path d="M68.3 126.726C66.275 130.336 67.625 134.848 71 136.878C74.6 138.909 79.1 137.555 81.125 134.171C81.125 134.171 83.6 130.336 86.975 130.336C90.575 130.336 92.825 134.171 92.825 134.171C94.85 137.781 99.35 138.909 102.95 136.878C106.55 134.848 107.675 130.336 105.65 126.726C103.175 122.44 96.65 115.446 86.975 115.446C77.3 115.446 70.775 122.665 68.3 126.726Z" fill="black"/>
<path d="M111.725 150.414C103.175 150.414 96.2 158.536 96.2 168.237C96.2 178.163 103.175 186.059 111.725 186.059C120.275 186.059 127.25 177.938 127.25 168.237C127.25 158.536 120.275 150.414 111.725 150.414Z" fill="black"/>
<path d="M114.425 45.0591H128.15L107.9 73.0335C106.1 75.5151 105.875 78.6735 107.225 81.3807C108.575 84.0879 111.275 85.8927 114.425 85.8927H144.125C148.625 85.8927 152.225 82.2831 152.225 77.7711C152.225 73.2591 148.625 69.6495 144.125 69.6495H130.4L150.65 41.6751C152.45 39.1935 152.675 36.0351 151.325 33.3279C149.975 30.6207 147.275 28.8159 144.125 28.8159H114.425C109.925 28.8159 106.325 32.4255 106.325 36.9375C106.325 41.4495 109.925 45.0591 114.425 45.0591Z" fill="black"/>
<path d="M200.6 50.4735H186.875L207.125 22.4991C208.925 20.0175 209.15 16.8591 207.8 14.1519C206.45 11.4447 203.75 9.63989 200.6 9.63989H171.125C166.625 9.63989 163.025 13.2495 163.025 17.7615C163.025 22.2735 166.625 25.8831 171.125 25.8831H184.85L164.6 53.8575C162.8 56.3391 162.575 59.4975 163.925 62.2047C165.275 64.9119 167.975 66.7167 171.125 66.7167H200.825C205.325 66.7167 208.925 63.1071 208.925 58.5951C208.925 54.0831 205.1 50.4735 200.6 50.4735Z" fill="black"/>
</g>
<defs>
<clipPath id="clip0_42_2">
<rect width="240" height="240" fill="white"/>
</clipPath>
</defs>
</svg>
