<svg width="1068" height="168" viewBox="0 0 1068 168" fill="none" xmlns="http://www.w3.org/2000/svg">
<path d="M48.6051 116V28.7273H69.4432V61.7528H69.8693C70.7216 59.7642 71.929 57.8466 73.4915 56C75.0824 54.1534 77.0994 52.6477 79.5426 51.483C82.0142 50.2898 84.9688 49.6932 88.4062 49.6932C92.9517 49.6932 97.1989 50.8864 101.148 53.2727C105.125 55.6591 108.335 59.3381 110.778 64.3097C113.222 69.2812 114.443 75.6165 114.443 83.3153C114.443 90.7301 113.264 96.9375 110.906 101.938C108.577 106.938 105.423 110.688 101.446 113.188C97.4972 115.688 93.108 116.938 88.2784 116.938C84.983 116.938 82.1278 116.398 79.7131 115.318C77.2983 114.239 75.267 112.818 73.6193 111.057C72 109.295 70.75 107.406 69.8693 105.389H69.2301V116H48.6051ZM69.017 83.2727C69.017 86.7955 69.4858 89.8636 70.4233 92.4773C71.3892 95.0909 72.767 97.1222 74.5568 98.571C76.375 99.9915 78.5483 100.702 81.0767 100.702C83.6335 100.702 85.8068 99.9915 87.5966 98.571C89.3864 97.1222 90.7358 95.0909 91.6449 92.4773C92.5824 89.8636 93.0511 86.7955 93.0511 83.2727C93.0511 79.75 92.5824 76.696 91.6449 74.1108C90.7358 71.5256 89.3864 69.5227 87.5966 68.1023C85.8352 66.6818 83.6619 65.9716 81.0767 65.9716C78.5199 65.9716 76.3466 66.6676 74.5568 68.0597C72.767 69.4517 71.3892 71.4403 70.4233 74.0256C69.4858 76.6108 69.017 79.6932 69.017 83.2727ZM155.917 117.236C149.042 117.236 143.133 115.83 138.19 113.017C133.275 110.176 129.482 106.227 126.812 101.17C124.17 96.0852 122.849 90.1903 122.849 83.4858C122.849 76.7528 124.17 70.858 126.812 65.8011C129.482 60.7159 133.275 56.767 138.19 53.9545C143.133 51.1136 149.042 49.6932 155.917 49.6932C162.792 49.6932 168.687 51.1136 173.602 53.9545C178.545 56.767 182.337 60.7159 184.979 65.8011C187.65 70.858 188.985 76.7528 188.985 83.4858C188.985 90.1903 187.65 96.0852 184.979 101.17C182.337 106.227 178.545 110.176 173.602 113.017C168.687 115.83 162.792 117.236 155.917 117.236ZM156.045 101.511C158.545 101.511 160.661 100.744 162.394 99.2102C164.127 97.6761 165.448 95.5455 166.357 92.8182C167.295 90.0909 167.763 86.9375 167.763 83.358C167.763 79.7216 167.295 76.5398 166.357 73.8125C165.448 71.0852 164.127 68.9545 162.394 67.4205C160.661 65.8864 158.545 65.1193 156.045 65.1193C153.46 65.1193 151.272 65.8864 149.482 67.4205C147.721 68.9545 146.371 71.0852 145.434 73.8125C144.525 76.5398 144.07 79.7216 144.07 83.358C144.07 86.9375 144.525 90.0909 145.434 92.8182C146.371 95.5455 147.721 97.6761 149.482 99.2102C151.272 100.744 153.46 101.511 156.045 101.511ZM199.66 116V50.5455H219.901V62.4773H220.583C221.776 58.1591 223.722 54.9489 226.421 52.8466C229.12 50.7159 232.259 49.6506 235.839 49.6506C236.805 49.6506 237.799 49.7216 238.822 49.8636C239.844 49.9773 240.796 50.1619 241.677 50.4176V68.5284C240.683 68.1875 239.376 67.9176 237.756 67.7188C236.165 67.5199 234.745 67.4205 233.495 67.4205C231.023 67.4205 228.793 67.9744 226.805 69.0824C224.844 70.1619 223.296 71.6818 222.16 73.642C221.052 75.5739 220.498 77.8466 220.498 80.4602V116H199.66ZM250.168 116V50.5455H271.006V116H250.168ZM260.608 42.9176C257.682 42.9176 255.168 41.9517 253.065 40.0199C250.963 38.0597 249.912 35.7017 249.912 32.946C249.912 30.2187 250.963 27.8892 253.065 25.9574C255.168 23.9972 257.682 23.017 260.608 23.017C263.563 23.017 266.077 23.9972 268.151 25.9574C270.253 27.8892 271.304 30.2187 271.304 32.946C271.304 35.7017 270.253 38.0597 268.151 40.0199C266.077 41.9517 263.563 42.9176 260.608 42.9176ZM305.107 78.6705V116H284.269V50.5455H304.085V62.5625H304.809C306.258 58.5568 308.729 55.4176 312.224 53.1449C315.718 50.8438 319.88 49.6932 324.71 49.6932C329.312 49.6932 333.303 50.7301 336.684 52.804C340.093 54.8494 342.735 57.7187 344.61 61.4119C346.513 65.0767 347.451 69.3665 347.423 74.2812V116H326.585V78.3722C326.613 74.7358 325.69 71.8949 323.815 69.8494C321.968 67.804 319.397 66.7812 316.102 66.7812C313.914 66.7812 311.982 67.2642 310.306 68.2301C308.658 69.1676 307.38 70.517 306.471 72.2784C305.59 74.0398 305.136 76.1705 305.107 78.6705ZM390.835 141.909C384.614 141.909 379.287 141.043 374.855 139.31C370.423 137.577 366.943 135.205 364.415 132.193C361.886 129.182 360.366 125.773 359.855 121.966L379.585 120.858C379.955 122.193 380.636 123.358 381.631 124.352C382.653 125.347 383.974 126.114 385.594 126.653C387.241 127.193 389.173 127.463 391.389 127.463C394.884 127.463 397.767 126.611 400.04 124.906C402.341 123.23 403.491 120.29 403.491 116.085V104.58H402.767C401.943 106.597 400.693 108.401 399.017 109.991C397.341 111.582 395.253 112.832 392.753 113.741C390.281 114.651 387.44 115.105 384.23 115.105C379.457 115.105 375.082 113.997 371.105 111.781C367.156 109.537 363.989 106.071 361.602 101.384C359.244 96.6676 358.065 90.6023 358.065 83.1875C358.065 75.5455 359.287 69.2528 361.73 64.3097C364.173 59.3381 367.369 55.6591 371.318 53.2727C375.295 50.8864 379.571 49.6932 384.145 49.6932C387.582 49.6932 390.523 50.2898 392.966 51.483C395.438 52.6477 397.469 54.1534 399.06 56C400.651 57.8466 401.858 59.7642 402.682 61.7528H403.278V50.5455H424.031V116.256C424.031 121.795 422.639 126.469 419.855 130.276C417.071 134.082 413.179 136.966 408.179 138.926C403.179 140.915 397.398 141.909 390.835 141.909ZM391.474 99.9347C394.003 99.9347 396.162 99.267 397.952 97.9318C399.741 96.5966 401.119 94.679 402.085 92.179C403.051 89.679 403.534 86.6818 403.534 83.1875C403.534 79.6364 403.051 76.5824 402.085 74.0256C401.148 71.4403 399.77 69.4517 397.952 68.0597C396.162 66.6676 394.003 65.9716 391.474 65.9716C388.889 65.9716 386.702 66.6818 384.912 68.1023C383.122 69.5227 381.759 71.5256 380.821 74.1108C379.912 76.6676 379.457 79.6932 379.457 83.1875C379.457 86.6818 379.926 89.679 380.864 92.179C381.801 94.679 383.151 96.5966 384.912 97.9318C386.702 99.267 388.889 99.9347 391.474 99.9347ZM487.004 116.938C482.174 116.938 477.785 115.688 473.836 113.188C469.887 110.688 466.734 106.938 464.376 101.938C462.018 96.9375 460.839 90.7301 460.839 83.3153C460.839 75.6165 462.06 69.2812 464.504 64.3097C466.947 59.3381 470.143 55.6591 474.092 53.2727C478.069 50.8864 482.344 49.6932 486.918 49.6932C490.356 49.6932 493.296 50.2898 495.739 51.483C498.183 52.6477 500.2 54.1534 501.79 56C503.381 57.8466 504.589 59.7642 505.413 61.7528H505.839V28.7273H526.677V116H506.052V105.389H505.413C504.532 107.406 503.282 109.295 501.663 111.057C500.043 112.818 498.012 114.239 495.569 115.318C493.154 116.398 490.299 116.938 487.004 116.938ZM494.248 100.702C496.776 100.702 498.935 99.9915 500.725 98.571C502.515 97.1222 503.893 95.0909 504.859 92.4773C505.825 89.8636 506.308 86.7955 506.308 83.2727C506.308 79.6932 505.825 76.6108 504.859 74.0256C503.921 71.4403 502.543 69.4517 500.725 68.0597C498.935 66.6676 496.776 65.9716 494.248 65.9716C491.663 65.9716 489.475 66.6818 487.685 68.1023C485.896 69.5227 484.532 71.5256 483.594 74.1108C482.685 76.696 482.231 79.75 482.231 83.2727C482.231 86.7955 482.7 89.8636 483.637 92.4773C484.575 95.0909 485.924 97.1222 487.685 98.571C489.475 99.9915 491.663 100.702 494.248 100.702ZM558.307 117.108C554.131 117.108 550.423 116.412 547.185 115.02C543.974 113.599 541.432 111.469 539.557 108.628C537.71 105.759 536.787 102.165 536.787 97.8466C536.787 94.2102 537.426 91.142 538.705 88.642C539.983 86.142 541.744 84.1108 543.989 82.5483C546.233 80.9858 548.818 79.8068 551.744 79.0114C554.67 78.1875 557.795 77.6335 561.119 77.3494C564.841 77.0085 567.838 76.6534 570.111 76.2841C572.384 75.8864 574.031 75.3324 575.054 74.6222C576.105 73.8835 576.631 72.8466 576.631 71.5114V71.2983C576.631 69.1108 575.878 67.4205 574.372 66.2273C572.866 65.0341 570.835 64.4375 568.278 64.4375C565.523 64.4375 563.307 65.0341 561.631 66.2273C559.955 67.4205 558.889 69.0682 558.435 71.1705L539.216 70.4886C539.784 66.5114 541.247 62.9602 543.605 59.8352C545.991 56.6818 549.259 54.2102 553.406 52.4205C557.582 50.6023 562.597 49.6932 568.449 49.6932C572.625 49.6932 576.474 50.1903 579.997 51.1847C583.52 52.1506 586.588 53.571 589.202 55.446C591.815 57.2926 593.832 59.5653 595.253 62.2642C596.702 64.9631 597.426 68.0455 597.426 71.5114V116H577.824V106.881H577.312C576.148 109.097 574.656 110.972 572.838 112.506C571.048 114.04 568.932 115.19 566.489 115.957C564.074 116.724 561.347 117.108 558.307 117.108ZM564.741 103.472C566.986 103.472 569.003 103.017 570.793 102.108C572.611 101.199 574.06 99.9489 575.139 98.358C576.219 96.7386 576.759 94.8636 576.759 92.733V86.5114C576.162 86.8239 575.438 87.108 574.585 87.3636C573.761 87.6193 572.852 87.8608 571.858 88.0881C570.864 88.3153 569.841 88.5142 568.79 88.6847C567.739 88.8551 566.73 89.0114 565.764 89.1534C563.804 89.4659 562.128 89.9489 560.736 90.6023C559.372 91.2557 558.321 92.108 557.582 93.1591C556.872 94.1818 556.517 95.4034 556.517 96.8239C556.517 98.983 557.284 100.631 558.818 101.767C560.381 102.903 562.355 103.472 564.741 103.472ZM647.114 50.5455V65.8864H605.821V50.5455H647.114ZM614.472 34.8636H635.31V95.4176C635.31 96.696 635.509 97.733 635.906 98.5284C636.332 99.2955 636.943 99.8494 637.739 100.19C638.534 100.503 639.486 100.659 640.594 100.659C641.389 100.659 642.227 100.588 643.108 100.446C644.017 100.276 644.699 100.134 645.153 100.02L648.307 115.062C647.313 115.347 645.906 115.702 644.088 116.128C642.298 116.554 640.153 116.824 637.653 116.938C632.767 117.165 628.577 116.597 625.082 115.233C621.616 113.841 618.96 111.682 617.114 108.756C615.295 105.83 614.415 102.151 614.472 97.7188V34.8636ZM676.197 117.108C672.021 117.108 668.314 116.412 665.075 115.02C661.865 113.599 659.322 111.469 657.447 108.628C655.601 105.759 654.678 102.165 654.678 97.8466C654.678 94.2102 655.317 91.142 656.595 88.642C657.874 86.142 659.635 84.1108 661.879 82.5483C664.124 80.9858 666.709 79.8068 669.635 79.0114C672.561 78.1875 675.686 77.6335 679.01 77.3494C682.732 77.0085 685.729 76.6534 688.001 76.2841C690.274 75.8864 691.922 75.3324 692.945 74.6222C693.996 73.8835 694.521 72.8466 694.521 71.5114V71.2983C694.521 69.1108 693.768 67.4205 692.263 66.2273C690.757 65.0341 688.726 64.4375 686.169 64.4375C683.413 64.4375 681.197 65.0341 679.521 66.2273C677.845 67.4205 676.78 69.0682 676.325 71.1705L657.107 70.4886C657.675 66.5114 659.138 62.9602 661.496 59.8352C663.882 56.6818 667.149 54.2102 671.297 52.4205C675.473 50.6023 680.487 49.6932 686.339 49.6932C690.516 49.6932 694.365 50.1903 697.888 51.1847C701.411 52.1506 704.479 53.571 707.092 55.446C709.706 57.2926 711.723 59.5653 713.143 62.2642C714.592 64.9631 715.317 68.0455 715.317 71.5114V116H695.714V106.881H695.203C694.038 109.097 692.547 110.972 690.729 112.506C688.939 114.04 686.822 115.19 684.379 115.957C681.964 116.724 679.237 117.108 676.197 117.108ZM682.632 103.472C684.876 103.472 686.893 103.017 688.683 102.108C690.501 101.199 691.95 99.9489 693.03 98.358C694.109 96.7386 694.649 94.8636 694.649 92.733V86.5114C694.053 86.8239 693.328 87.108 692.476 87.3636C691.652 87.6193 690.743 87.8608 689.749 88.0881C688.754 88.3153 687.732 88.5142 686.68 88.6847C685.629 88.8551 684.621 89.0114 683.655 89.1534C681.695 89.4659 680.018 89.9489 678.626 90.6023C677.263 91.2557 676.212 92.108 675.473 93.1591C674.763 94.1818 674.408 95.4034 674.408 96.8239C674.408 98.983 675.175 100.631 676.709 101.767C678.271 102.903 680.246 103.472 682.632 103.472ZM728.058 116V28.7273H748.896V61.7528H749.322C750.175 59.7642 751.382 57.8466 752.945 56C754.536 54.1534 756.553 52.6477 758.996 51.483C761.467 50.2898 764.422 49.6932 767.859 49.6932C772.405 49.6932 776.652 50.8864 780.601 53.2727C784.578 55.6591 787.788 59.3381 790.232 64.3097C792.675 69.2812 793.896 75.6165 793.896 83.3153C793.896 90.7301 792.717 96.9375 790.359 101.938C788.03 106.938 784.876 110.688 780.899 113.188C776.95 115.688 772.561 116.938 767.732 116.938C764.436 116.938 761.581 116.398 759.166 115.318C756.751 114.239 754.72 112.818 753.072 111.057C751.453 109.295 750.203 107.406 749.322 105.389H748.683V116H728.058ZM748.47 83.2727C748.47 86.7955 748.939 89.8636 749.876 92.4773C750.842 95.0909 752.22 97.1222 754.01 98.571C755.828 99.9915 758.001 100.702 760.53 100.702C763.087 100.702 765.26 99.9915 767.05 98.571C768.839 97.1222 770.189 95.0909 771.098 92.4773C772.036 89.8636 772.504 86.7955 772.504 83.2727C772.504 79.75 772.036 76.696 771.098 74.1108C770.189 71.5256 768.839 69.5227 767.05 68.1023C765.288 66.6818 763.115 65.9716 760.53 65.9716C757.973 65.9716 755.8 66.6676 754.01 68.0597C752.22 69.4517 750.842 71.4403 749.876 74.0256C748.939 76.6108 748.47 79.6932 748.47 83.2727ZM823.268 117.108C819.092 117.108 815.384 116.412 812.146 115.02C808.935 113.599 806.393 111.469 804.518 108.628C802.671 105.759 801.748 102.165 801.748 97.8466C801.748 94.2102 802.387 91.142 803.665 88.642C804.944 86.142 806.705 84.1108 808.95 82.5483C811.194 80.9858 813.779 79.8068 816.705 79.0114C819.631 78.1875 822.756 77.6335 826.08 77.3494C829.802 77.0085 832.799 76.6534 835.072 76.2841C837.344 75.8864 838.992 75.3324 840.015 74.6222C841.066 73.8835 841.592 72.8466 841.592 71.5114V71.2983C841.592 69.1108 840.839 67.4205 839.333 66.2273C837.827 65.0341 835.796 64.4375 833.239 64.4375C830.484 64.4375 828.268 65.0341 826.592 66.2273C824.915 67.4205 823.85 69.0682 823.396 71.1705L804.177 70.4886C804.745 66.5114 806.208 62.9602 808.566 59.8352C810.952 56.6818 814.219 54.2102 818.367 52.4205C822.543 50.6023 827.558 49.6932 833.41 49.6932C837.586 49.6932 841.435 50.1903 844.958 51.1847C848.481 52.1506 851.549 53.571 854.163 55.446C856.776 57.2926 858.793 59.5653 860.214 62.2642C861.663 64.9631 862.387 68.0455 862.387 71.5114V116H842.785V106.881H842.273C841.109 109.097 839.617 110.972 837.799 112.506C836.009 114.04 833.893 115.19 831.45 115.957C829.035 116.724 826.308 117.108 823.268 117.108ZM829.702 103.472C831.947 103.472 833.964 103.017 835.754 102.108C837.572 101.199 839.021 99.9489 840.1 98.358C841.18 96.7386 841.719 94.8636 841.719 92.733V86.5114C841.123 86.8239 840.398 87.108 839.546 87.3636C838.722 87.6193 837.813 87.8608 836.819 88.0881C835.825 88.3153 834.802 88.5142 833.751 88.6847C832.7 88.8551 831.691 89.0114 830.725 89.1534C828.765 89.4659 827.089 89.9489 825.697 90.6023C824.333 91.2557 823.282 92.108 822.543 93.1591C821.833 94.1818 821.478 95.4034 821.478 96.8239C821.478 98.983 822.245 100.631 823.779 101.767C825.342 102.903 827.316 103.472 829.702 103.472ZM932.273 70.5312L913.14 71.0426C912.941 69.679 912.401 68.4716 911.521 67.4205C910.64 66.3409 909.489 65.5028 908.069 64.9062C906.677 64.2812 905.058 63.9688 903.211 63.9688C900.796 63.9688 898.737 64.4517 897.032 65.4176C895.356 66.3835 894.532 67.6903 894.56 69.3381C894.532 70.6165 895.043 71.7244 896.094 72.6619C897.174 73.5994 899.092 74.3523 901.847 74.9205L914.461 77.3068C920.995 78.5568 925.853 80.6307 929.035 83.5284C932.245 86.4261 933.864 90.2614 933.893 95.0341C933.864 99.5227 932.529 103.429 929.887 106.753C927.273 110.077 923.694 112.662 919.148 114.509C914.603 116.327 909.404 117.236 903.552 117.236C894.205 117.236 886.833 115.318 881.435 111.483C876.066 107.619 872.998 102.449 872.231 95.9716L892.813 95.4602C893.268 97.8466 894.447 99.6648 896.35 100.915C898.254 102.165 900.683 102.79 903.637 102.79C906.308 102.79 908.481 102.293 910.157 101.298C911.833 100.304 912.685 98.983 912.714 97.3352C912.685 95.858 912.032 94.679 910.754 93.7983C909.475 92.8892 907.472 92.179 904.745 91.6676L893.325 89.4943C886.762 88.3011 881.876 86.0994 878.665 82.8892C875.455 79.6506 873.864 75.5312 873.893 70.5312C873.864 66.1562 875.029 62.4205 877.387 59.3239C879.745 56.1989 883.097 53.8125 887.444 52.1648C891.79 50.517 896.918 49.6932 902.827 49.6932C911.691 49.6932 918.68 51.554 923.793 55.2756C928.907 58.9687 931.734 64.054 932.273 70.5312ZM974.749 117.236C967.902 117.236 961.993 115.886 957.021 113.188C952.078 110.46 948.271 106.582 945.601 101.554C942.959 96.4972 941.638 90.4886 941.638 83.5284C941.638 76.767 942.973 70.858 945.643 65.8011C948.314 60.7159 952.078 56.767 956.936 53.9545C961.794 51.1136 967.518 49.6932 974.109 49.6932C978.768 49.6932 983.03 50.4176 986.893 51.8665C990.757 53.3153 994.095 55.4602 996.908 58.3011C999.72 61.142 1001.91 64.6506 1003.47 68.8267C1005.03 72.9744 1005.81 77.733 1005.81 83.1023V88.3011H948.925V76.1989H986.425C986.396 73.983 985.871 72.0085 984.848 70.2756C983.825 68.5426 982.419 67.1932 980.629 66.2273C978.868 65.233 976.837 64.7358 974.536 64.7358C972.206 64.7358 970.118 65.2614 968.271 66.3125C966.425 67.3352 964.962 68.7415 963.882 70.5312C962.803 72.2926 962.234 74.2955 962.178 76.5398V88.8551C962.178 91.5256 962.703 93.8693 963.754 95.8864C964.805 97.875 966.297 99.4233 968.229 100.531C970.161 101.639 972.462 102.193 975.132 102.193C976.979 102.193 978.655 101.937 980.161 101.426C981.666 100.915 982.959 100.162 984.038 99.1676C985.118 98.1733 985.928 96.9517 986.467 95.5028L1005.6 96.0568C1004.81 100.347 1003.06 104.082 1000.36 107.264C997.689 110.418 994.18 112.875 989.834 114.636C985.487 116.369 980.459 117.236 974.749 117.236Z" fill="white"/>
</svg>
